<svg xmlns="http://www.w3.org/2000/svg" viewBox="0 0 256 256" width="256" height="256">
  <defs>
    <radialGradient id="bg" cx="50%" cy="50%" r="50%">
      <stop offset="0%" stop-color="#0d0d2b"/>
      <stop offset="100%" stop-color="#050510"/>
    </radialGradient>
    <linearGradient id="ring1" x1="0%" y1="0%" x2="100%" y2="100%">
      <stop offset="0%" stop-color="#6366f1"/>
      <stop offset="100%" stop-color="#22d3ee"/>
    </linearGradient>
    <linearGradient id="ring2" x1="100%" y1="0%" x2="0%" y2="100%">
      <stop offset="0%" stop-color="#a78bfa"/>
      <stop offset="100%" stop-color="#6366f1"/>
    </linearGradient>
  </defs>
  <rect width="256" height="256" rx="48" fill="url(#bg)"/>
  <circle cx="128" cy="128" r="100" fill="none" stroke="url(#ring1)" stroke-width="2" stroke-dasharray="8 4" opacity="0.6"/>
  <circle cx="128" cy="128" r="72" fill="none" stroke="url(#ring2)" stroke-width="1.5" opacity="0.5"/>
  <circle cx="128" cy="128" r="44" fill="none" stroke="#22d3ee" stroke-width="1" opacity="0.4"/>
  <circle cx="128" cy="128" r="8" fill="#22d3ee" opacity="0.9"/>
  <circle cx="128" cy="128" r="4" fill="#fff"/>
  <circle cx="228" cy="128" r="4" fill="#6366f1"/>
  <circle cx="128" cy="28"  r="4" fill="#22d3ee"/>
  <circle cx="28"  cy="128" r="4" fill="#a78bfa"/>
  <circle cx="128" cy="228" r="3" fill="#6366f1" opacity="0.6"/>
  <line x1="128" y1="128" x2="214" y2="60" stroke="#22d3ee" stroke-width="1.5" opacity="0.7"/>
  <g transform="translate(88, 108)">
    <rect x="0" y="6" width="22" height="12" rx="6" fill="none" stroke="#6366f1" stroke-width="2.5"/>
    <rect x="14" y="6" width="22" height="12" rx="6" fill="none" stroke="#22d3ee" stroke-width="2.5"/>
    <rect x="28" y="6" width="22" height="12" rx="6" fill="none" stroke="#a78bfa" stroke-width="2.5"/>
  </g>
  <circle cx="60"  cy="55"  r="1.5" fill="#fff" opacity="0.7"/>
  <circle cx="195" cy="72"  r="1"   fill="#fff" opacity="0.5"/>
  <circle cx="80"  cy="190" r="1.5" fill="#fff" opacity="0.6"/>
  <circle cx="200" cy="185" r="1"   fill="#fff" opacity="0.4"/>
  <circle cx="45"  cy="160" r="1"   fill="#6366f1" opacity="0.8"/>
  <circle cx="210" cy="140" r="1.5" fill="#22d3ee" opacity="0.6"/>
</svg>
